<svg width="20" height="20" viewBox="0 0 20 20" fill="none" xmlns="http://www.w3.org/2000/svg">
<path d="M14.3693 7.60458C13.1557 7.24635 11.6504 6.8393 10.6596 6.32342C14.6622 5.2555 19.9506 4.34345 19.9746 2.1673C20.0016 -0.417366 13.0987 -0.498245 10.3397 0.91703C7.61032 2.31613 7.0479 3.98051 9.64895 6.14048C6.65067 7.02488 2.86002 8.47986 0.970689 11.3413C-3.21449 17.6736 6.97505 22.8953 15.48 18.1803C21.3603 14.9224 22.0195 9.86043 14.3693 7.60458ZM10.0615 2.06378C12.5576 0.374388 17.7804 1.56555 14.1123 4.2164C13.0586 4.97991 11.4996 5.58285 10.1841 5.98549C8.43237 4.90021 8.15865 3.35964 10.0615 2.06378ZM15.027 13.0042C9.80454 17.168 -0.296858 14.5483 4.37999 9.42661C5.91796 7.96105 8.12597 7.07665 10.1496 6.46195C13.0466 8.32545 19.8415 9.17603 15.0273 13.0107L15.027 13.0042Z" fill="#222222"/>
<path d="M15.0273 13.0107C14.9317 13.086 14.8314 13.158 14.7282 13.2242C16.4743 13.9083 18.7641 14.7574 19.3469 14.7633C20.9613 12.0507 19.6458 9.1613 14.3637 7.60456C13.1558 7.24604 11.6505 6.83928 10.6597 6.32193L10.1496 6.46195C13.0463 8.32545 19.8421 9.17632 15.0273 13.0107Z" fill="#222222"/>
<path d="M10.0634 2.06434C11.0947 1.36347 12.5895 1.1573 13.7314 1.33994C13.7986 1.1423 13.9644 0.602895 14.1511 0.0264325C12.6567 0.125255 11.259 0.439073 10.3413 0.910831C7.61015 2.31581 7.04983 3.9802 9.65058 6.14017L10.1857 5.99282C8.434 4.90019 8.16058 3.36021 10.0634 2.06434Z" fill="#222222"/>
<path d="M14.999 13.046C9.68354 17.1321 -0.192116 14.5495 4.33694 9.47248C4.57018 9.24954 4.55219 9.24219 4.32345 9.47248C0.59995 13.1724 3.1962 21.6438 12.3712 19.4353C13.4196 19.1299 14.4294 18.709 15.3812 18.1806C17.4144 17.0541 18.8193 15.7112 19.48 14.3477L16.2422 11.8104C15.8923 12.2802 15.4735 12.6968 14.999 13.046Z" fill="#222222"/>
<path d="M8.87918 3.38051C9.06175 2.93845 9.44879 2.48875 10.0664 2.06993C12.5655 0.374664 17.7895 1.56582 14.1167 4.21667C13.2203 4.86519 11.9599 5.39607 10.7943 5.79547C16.1229 4.15167 18.2988 2.56228 17.2855 1.38289C16.2947 0.22908 10.0169 0.274372 8.87918 3.38051Z" fill="#222222"/>
<path d="M19.7328 2.2514C19.7223 3.29815 18.4889 4.05284 16.7672 4.67195C18.61 4.03667 19.9552 3.26256 19.966 2.16611C19.9972 -0.253272 13.9467 -0.477386 10.9136 0.664951C14.0123 -0.381799 19.7624 -0.110333 19.7328 2.2514Z" fill="#222222"/>
<path d="M1.34734 11.2413C2.24434 9.85424 3.56885 8.77778 5.03036 7.92868C3.41625 8.77043 1.94533 9.87749 0.970689 11.3413C-0.989092 14.3104 0.209906 17.0368 2.91379 18.6068C0.425162 16.9347 -0.585159 14.2092 1.34734 11.2413Z" fill="#222222"/>
</svg>
