<svg width="21" height="20" viewBox="0 0 21 20" fill="none" xmlns="http://www.w3.org/2000/svg">
<path fill-rule="evenodd" clip-rule="evenodd" d="M10.375 19.875C15.7598 19.875 20.125 15.5098 20.125 10.125C20.125 4.74022 15.7598 0.375 10.375 0.375C4.99022 0.375 0.625 4.74022 0.625 10.125C0.625 15.5098 4.99022 19.875 10.375 19.875ZM8.89377 5.90627C8.64272 5.65522 8.23568 5.65522 7.98463 5.90627L5.94178 7.94913C5.69072 8.20018 5.69072 8.60721 5.94178 8.85827C6.19283 9.10932 6.59986 9.10932 6.85091 8.85827L7.79634 7.91283V12.4894C7.79634 12.8445 8.08416 13.1323 8.4392 13.1323C8.79424 13.1323 9.08206 12.8445 9.08206 12.4894V7.91283L10.0275 8.85827C10.2785 9.10932 10.6856 9.10932 10.9366 8.85827C11.1877 8.60721 11.1877 8.20018 10.9366 7.94913L8.89377 5.90627ZM13.1678 8.4037C13.1678 8.04866 12.88 7.76084 12.5249 7.76084C12.1699 7.76084 11.8821 8.04866 11.8821 8.4037V12.9803L10.9366 12.0348C10.6856 11.7838 10.2785 11.7838 10.0275 12.0348C9.77644 12.2859 9.77644 12.6929 10.0275 12.944L12.0703 14.9868C12.3214 15.2379 12.7284 15.2379 12.9795 14.9868L15.0223 12.944C15.2734 12.6929 15.2734 12.2859 15.0223 12.0348C14.7713 11.7838 14.3643 11.7838 14.1132 12.0348L13.1678 12.9803V8.4037Z" fill="white"/>
</svg>
