<svg width="142" height="142" viewBox="0 0 142 142" fill="none" xmlns="http://www.w3.org/2000/svg">
<g filter="url(#filter0_dii_751_2321)">
<path fill-rule="evenodd" clip-rule="evenodd" d="M49.2026 18.3769C51.9102 15.2535 55.2582 12.7492 59.0192 11.0342C62.7803 9.31919 66.8664 8.43358 71 8.43751C79.7074 8.43751 87.5101 12.2875 92.7974 18.3769C96.9214 18.0825 101.06 18.679 104.933 20.1261C108.806 21.5732 112.322 23.837 115.243 26.7635C118.168 29.6835 120.431 33.1986 121.878 37.0703C123.325 40.942 123.923 45.0797 123.63 49.2026C126.752 51.9108 129.255 55.259 130.969 59.0201C132.683 62.7811 133.567 66.8669 133.563 71C133.566 75.1336 132.681 79.2197 130.966 82.9808C129.251 86.7419 126.747 90.0899 123.623 92.7974C123.916 96.9203 123.319 101.058 121.872 104.93C120.425 108.801 118.162 112.317 115.237 115.237C112.317 118.162 108.801 120.425 104.93 121.872C101.058 123.319 96.9203 123.916 92.7974 123.623C90.0899 126.747 86.7419 129.251 82.9808 130.966C79.2197 132.681 75.1337 133.566 71 133.563C66.8664 133.566 62.7803 132.681 59.0192 130.966C55.2582 129.251 51.9102 126.747 49.2026 123.623C45.0791 123.918 40.9404 123.323 37.0674 121.877C33.1945 120.431 29.6781 118.168 26.7571 115.243C23.8309 112.322 21.5674 108.806 20.1203 104.933C18.6733 101.06 18.0765 96.9214 18.3705 92.7974C15.2482 90.0893 12.7452 86.741 11.0313 82.98C9.3174 79.2189 8.43279 75.1331 8.43752 71C8.43752 62.2926 12.2875 54.4899 18.3769 49.2026C18.0834 45.0797 18.6805 40.9419 20.1275 37.0701C21.5746 33.1983 23.8378 29.6832 26.7635 26.7635C29.6833 23.8378 33.1983 21.5746 37.0701 20.1275C40.9419 18.6804 45.0797 18.0834 49.2026 18.3769ZM94.1642 59.3602C94.5492 58.8472 94.8277 58.2624 94.9835 57.6402C95.1393 57.018 95.1691 56.3709 95.0712 55.737C94.9733 55.1031 94.7497 54.4952 94.4135 53.949C94.0773 53.4028 93.6353 52.9292 93.1135 52.5563C92.5917 52.1833 92.0006 51.9184 91.3749 51.7771C90.7493 51.6359 90.1017 51.6211 89.4702 51.7337C88.8388 51.8463 88.2362 52.084 87.698 52.4328C87.1597 52.7816 86.6966 53.2345 86.3359 53.7648L65.5715 82.8323L55.1508 72.4117C54.2386 71.5616 53.0319 71.0988 51.7852 71.1208C50.5384 71.1428 49.3488 71.6479 48.4671 72.5296C47.5854 73.4113 47.0803 74.6009 47.0583 75.8477C47.0363 77.0944 47.4991 78.3011 48.3492 79.2133L62.7867 93.6508C63.2807 94.1445 63.8762 94.5247 64.5319 94.7651C65.1876 95.0054 65.8878 95.1002 66.5838 95.0428C67.2798 94.9854 67.955 94.7773 68.5625 94.4327C69.17 94.0882 69.6952 93.6156 70.1017 93.0477L94.1642 59.3602Z" fill="#17C8B6"/>
</g>
<defs>
<filter id="filter0_dii_751_2321" x="0.1375" y="0.1375" width="141.725" height="141.725" filterUnits="userSpaceOnUse" color-interpolation-filters="sRGB">
<feFlood flood-opacity="0" result="BackgroundImageFix"/>
<feColorMatrix in="SourceAlpha" type="matrix" values="0 0 0 0 0 0 0 0 0 0 0 0 0 0 0 0 0 0 127 0" result="hardAlpha"/>
<feOffset/>
<feGaussianBlur stdDeviation="4.15"/>
<feComposite in2="hardAlpha" operator="out"/>
<feColorMatrix type="matrix" values="0 0 0 0 0.0901961 0 0 0 0 0.784314 0 0 0 0 0.713726 0 0 0 0.25 0"/>
<feBlend mode="normal" in2="BackgroundImageFix" result="effect1_dropShadow_751_2321"/>
<feBlend mode="normal" in="SourceGraphic" in2="effect1_dropShadow_751_2321" result="shape"/>
<feColorMatrix in="SourceAlpha" type="matrix" values="0 0 0 0 0 0 0 0 0 0 0 0 0 0 0 0 0 0 127 0" result="hardAlpha"/>
<feOffset dx="4" dy="-4"/>
<feGaussianBlur stdDeviation="11.2"/>
<feComposite in2="hardAlpha" operator="arithmetic" k2="-1" k3="1"/>
<feColorMatrix type="matrix" values="0 0 0 0 0.596172 0 0 0 0 0.828369 0 0 0 0 0.804755 0 0 0 1 0"/>
<feBlend mode="normal" in2="shape" result="effect2_innerShadow_751_2321"/>
<feColorMatrix in="SourceAlpha" type="matrix" values="0 0 0 0 0 0 0 0 0 0 0 0 0 0 0 0 0 0 127 0" result="hardAlpha"/>
<feOffset dx="-4" dy="4"/>
<feGaussianBlur stdDeviation="7.8"/>
<feComposite in2="hardAlpha" operator="arithmetic" k2="-1" k3="1"/>
<feColorMatrix type="matrix" values="0 0 0 0 1 0 0 0 0 1 0 0 0 0 1 0 0 0 0.25 0"/>
<feBlend mode="normal" in2="effect2_innerShadow_751_2321" result="effect3_innerShadow_751_2321"/>
</filter>
</defs>
</svg>
