<svg width="23" height="30" viewBox="0 0 23 30" fill="none" xmlns="http://www.w3.org/2000/svg">
<path d="M3.83333 26.3014V4.10959H12.779C14.2225 4.10959 15.4342 4.39726 16.4142 4.9726C17.3941 5.54795 18.1316 6.29281 18.6269 7.20719C19.1221 8.1113 19.3697 9.06678 19.3697 10.0736C19.3697 11.2962 19.0589 12.3442 18.4372 13.2175C17.8261 14.0908 16.9989 14.6866 15.9558 15.0051L15.9242 14.25C17.3783 14.5993 18.4952 15.2825 19.2749 16.2997C20.0546 17.3065 20.4444 18.4829 20.4444 19.8288C20.4444 21.1336 20.1758 22.2688 19.6384 23.2346C19.1115 24.2003 18.3371 24.9555 17.315 25.5C16.3035 26.0342 15.076 26.3014 13.6325 26.3014H3.83333ZM7.184 23.2346H13.1267C13.8748 23.2346 14.5439 23.0959 15.1339 22.8185C15.7345 22.5411 16.2034 22.1455 16.5406 21.6319C16.8883 21.1079 17.0622 20.4863 17.0622 19.7671C17.0622 19.0993 16.9094 18.4983 16.6038 17.964C16.3088 17.4195 15.8768 16.9932 15.3078 16.6849C14.7494 16.3664 14.0908 16.2072 13.3322 16.2072H7.184V23.2346ZM7.184 13.1712H12.7316C13.3427 13.1712 13.8906 13.0531 14.3753 12.8168C14.8705 12.5702 15.2604 12.2209 15.5449 11.7688C15.8399 11.3065 15.9874 10.7517 15.9874 10.1045C15.9874 9.24144 15.6924 8.53253 15.1023 7.97774C14.5123 7.42295 13.722 7.14555 12.7316 7.14555H7.184V13.1712Z" fill="black"/>
<path d="M0 9.45206H6.38889V11.0959H0V9.45206Z" fill="black"/>
<path d="M0 19.726H6.38889V21.3699H0V19.726Z" fill="black"/>
<path d="M10.2222 0H11.9259V6.16438H10.2222V0Z" fill="black"/>
<path d="M10.2222 23.8356H11.9259V30H10.2222V23.8356Z" fill="black"/>
<path d="M16.6111 9.45206H23V11.0959H16.6111V9.45206Z" fill="black"/>
<path d="M17.463 19.726H23V21.3699H17.463V19.726Z" fill="black"/>
</svg>
