<svg width="12" height="16" viewBox="0 0 12 16" fill="none" xmlns="http://www.w3.org/2000/svg">
<g opacity="0.5">
<path d="M2 14.0274V2.19178H6.6673C7.42045 2.19178 8.05265 2.34521 8.56391 2.65205C9.07517 2.9589 9.45999 3.35616 9.71836 3.84384C9.97674 4.32603 10.1059 4.83562 10.1059 5.3726C10.1059 6.02466 9.94376 6.58356 9.61941 7.04931C9.30056 7.51507 8.86901 7.83288 8.32477 8.00274L8.30828 7.6C9.06692 7.7863 9.64965 8.15069 10.0565 8.69315C10.4633 9.23014 10.6667 9.85753 10.6667 10.5753C10.6667 11.2712 10.5265 11.8767 10.2461 12.3918C9.97124 12.9069 9.56718 13.3096 9.03394 13.6C8.50618 13.8849 7.86574 14.0274 7.11259 14.0274H2ZM3.74818 12.3918H6.84872C7.23903 12.3918 7.58812 12.3178 7.89597 12.1699C8.20932 12.0219 8.45396 11.811 8.62988 11.537C8.81129 11.2575 8.902 10.926 8.902 10.5425C8.902 10.1863 8.82229 9.86575 8.66286 9.58082C8.50893 9.29041 8.28354 9.06301 7.98668 8.89863C7.69532 8.72877 7.35173 8.64384 6.95592 8.64384H3.74818V12.3918ZM3.74818 7.02466H6.64256C6.96141 7.02466 7.24728 6.96164 7.50016 6.83562C7.75854 6.70411 7.96194 6.51781 8.11037 6.27671C8.2643 6.03014 8.34126 5.73425 8.34126 5.38904C8.34126 4.92877 8.18734 4.55068 7.87948 4.25479C7.57163 3.9589 7.15932 3.81096 6.64256 3.81096H3.74818V7.02466Z" fill="#222222"/>
<path d="M0 5.0411H3.33333V5.91781H0V5.0411Z" fill="#222222"/>
<path d="M0 10.5205H3.33333V11.3973H0V10.5205Z" fill="#222222"/>
<path d="M5.33333 0H6.22222V3.28767H5.33333V0Z" fill="#222222"/>
<path d="M5.33333 12.7123H6.22222V16H5.33333V12.7123Z" fill="#222222"/>
<path d="M8.66667 5.0411H12V5.91781H8.66667V5.0411Z" fill="#222222"/>
<path d="M9.11111 10.5205H12V11.3973H9.11111V10.5205Z" fill="#222222"/>
</g>
</svg>
