<svg width="34" height="12" viewBox="0 0 34 12" fill="none" xmlns="http://www.w3.org/2000/svg">
<path d="M31.7132 0.929932H29.5757C28.9295 0.929932 28.4324 1.12876 28.1342 1.77497L24.0581 11.0704H26.9412C26.9412 11.0704 27.4383 9.82769 27.5377 9.52945C27.8359 9.52945 30.6693 9.52945 31.067 9.52945C31.1664 9.8774 31.4149 11.0207 31.4149 11.0207H33.9997L31.7132 0.929932ZM28.333 7.4417C28.5815 6.8452 29.4266 4.60834 29.4266 4.60834C29.4266 4.65804 29.6751 4.01184 29.7745 3.66388L29.9734 4.55863C29.9734 4.55863 30.5202 6.99433 30.6196 7.49141H28.333V7.4417Z" fill="#3362AB"/>
<path d="M24.2571 7.73991C24.2571 9.82765 22.3682 11.2195 19.4354 11.2195C18.1927 11.2195 16.9997 10.9709 16.3535 10.6727L16.7512 8.38611L17.0991 8.53524C17.9939 8.9329 18.5904 9.08203 19.684 9.08203C20.4793 9.08203 21.3243 8.78378 21.3243 8.08786C21.3243 7.64049 20.9764 7.34224 19.8828 6.84516C18.8389 6.34808 17.4471 5.55275 17.4471 4.11121C17.4471 2.12288 19.3857 0.780762 22.1197 0.780762C23.1635 0.780762 24.0583 0.979594 24.6051 1.22814L24.2074 3.41529L24.0086 3.21646C23.5115 3.01763 22.8653 2.8188 21.9208 2.8188C20.877 2.8685 20.3799 3.31588 20.3799 3.71354C20.3799 4.16092 20.9764 4.50887 21.9208 4.95625C23.5115 5.70187 24.2571 6.54691 24.2571 7.73991Z" fill="#3362AB"/>
<path d="M-0.000488281 1.0294L0.0492199 0.830566H4.32412C4.92062 0.830566 5.36799 1.0294 5.51712 1.67561L6.46157 6.14934C5.51712 3.76335 3.32996 1.82473 -0.000488281 1.0294Z" fill="#F9B50B"/>
<path d="M12.4762 0.929835L8.15159 11.0206H5.21881L2.7334 2.5702C4.52289 3.71349 6.01414 5.50299 6.56093 6.74569L6.85918 7.78956L9.54342 0.880127H12.4762V0.929835Z" fill="#3362AB"/>
<path d="M13.6197 0.880127H16.3536L14.6138 11.0206H11.8799L13.6197 0.880127Z" fill="#3362AB"/>
</svg>
