<svg width="22" height="28" viewBox="0 0 22 28" fill="none" xmlns="http://www.w3.org/2000/svg">
<g clip-path="url(#clip0_749_2106)">
<path d="M0 6.09473L3.29592 12.1556V15.8525L0.00385567 21.9014L0 6.09473Z" fill="#5B57A2"/>
<path d="M12.6548 9.95005L15.7432 8.00265L22.0638 7.99658L12.6548 13.9265V9.95005Z" fill="#D90751"/>
<path d="M12.6377 6.05897L12.6552 14.0833L9.35156 11.995V0L12.6377 6.05897Z" fill="#FAB718"/>
<path d="M22.0642 7.99657L15.7434 8.00263L12.6377 6.05897L9.35156 0L22.0642 7.99657Z" fill="#ED6F26"/>
<path d="M12.6552 21.935V18.0418L9.35156 15.9932L9.35338 28L12.6552 21.935Z" fill="#63B22F"/>
<path d="M15.7357 20.0054L3.29569 12.1556L0 6.09473L22.0506 19.9974L15.7357 20.0054Z" fill="#1487C9"/>
<path d="M9.35352 27.9999L12.6549 21.9349L15.7356 20.0052L22.0505 19.9973L9.35352 27.9999Z" fill="#017F36"/>
<path d="M0.00390625 21.9013L9.3784 15.9933L6.22673 14.0039L3.29597 15.8524L0.00390625 21.9013Z" fill="#984995"/>
</g>
<defs>
<clipPath id="clip0_749_2106">
<rect width="22" height="28" fill="white"/>
</clipPath>
</defs>
</svg>
